%TF.GenerationSoftware,KiCad,Pcbnew,10.0.1*%
%TF.CreationDate,2026-06-17T21:04:09+05:30*%
%TF.ProjectId,12V to 5V power supply,31325620-746f-4203-9556-20706f776572,rev?*%
%TF.SameCoordinates,Original*%
%TF.FileFunction,Legend,Top*%
%TF.FilePolarity,Positive*%
%FSLAX46Y46*%
G04 Gerber Fmt 4.6, Leading zero omitted, Abs format (unit mm)*
G04 Created by KiCad (PCBNEW 10.0.1) date 2026-06-17 21:04:09*
%MOMM*%
%LPD*%
G01*
G04 APERTURE LIST*
%ADD10C,0.095250*%
%ADD11C,0.085598*%
%ADD12C,0.120000*%
G04 APERTURE END LIST*
D10*
X113553492Y-98842049D02*
X113299492Y-98842049D01*
X113299492Y-99241192D02*
X113299492Y-98479192D01*
X113299492Y-98479192D02*
X113662349Y-98479192D01*
X114279207Y-98733192D02*
X114279207Y-99241192D01*
X113952635Y-98733192D02*
X113952635Y-99132335D01*
X113952635Y-99132335D02*
X113988921Y-99204907D01*
X113988921Y-99204907D02*
X114061492Y-99241192D01*
X114061492Y-99241192D02*
X114170349Y-99241192D01*
X114170349Y-99241192D02*
X114242921Y-99204907D01*
X114242921Y-99204907D02*
X114279207Y-99168621D01*
X114642064Y-98733192D02*
X114642064Y-99241192D01*
X114642064Y-98805764D02*
X114678350Y-98769478D01*
X114678350Y-98769478D02*
X114750921Y-98733192D01*
X114750921Y-98733192D02*
X114859778Y-98733192D01*
X114859778Y-98733192D02*
X114932350Y-98769478D01*
X114932350Y-98769478D02*
X114968636Y-98842049D01*
X114968636Y-98842049D02*
X114968636Y-99241192D01*
X115912064Y-98842049D02*
X116166064Y-98842049D01*
X116274921Y-99241192D02*
X115912064Y-99241192D01*
X115912064Y-99241192D02*
X115912064Y-98479192D01*
X115912064Y-98479192D02*
X116274921Y-98479192D01*
X116710350Y-99241192D02*
X116637779Y-99204907D01*
X116637779Y-99204907D02*
X116601493Y-99132335D01*
X116601493Y-99132335D02*
X116601493Y-98479192D01*
X117290922Y-99204907D02*
X117218350Y-99241192D01*
X117218350Y-99241192D02*
X117073208Y-99241192D01*
X117073208Y-99241192D02*
X117000636Y-99204907D01*
X117000636Y-99204907D02*
X116964350Y-99132335D01*
X116964350Y-99132335D02*
X116964350Y-98842049D01*
X116964350Y-98842049D02*
X117000636Y-98769478D01*
X117000636Y-98769478D02*
X117073208Y-98733192D01*
X117073208Y-98733192D02*
X117218350Y-98733192D01*
X117218350Y-98733192D02*
X117290922Y-98769478D01*
X117290922Y-98769478D02*
X117327208Y-98842049D01*
X117327208Y-98842049D02*
X117327208Y-98914621D01*
X117327208Y-98914621D02*
X116964350Y-98987192D01*
X117980351Y-99204907D02*
X117907779Y-99241192D01*
X117907779Y-99241192D02*
X117762636Y-99241192D01*
X117762636Y-99241192D02*
X117690065Y-99204907D01*
X117690065Y-99204907D02*
X117653779Y-99168621D01*
X117653779Y-99168621D02*
X117617493Y-99096049D01*
X117617493Y-99096049D02*
X117617493Y-98878335D01*
X117617493Y-98878335D02*
X117653779Y-98805764D01*
X117653779Y-98805764D02*
X117690065Y-98769478D01*
X117690065Y-98769478D02*
X117762636Y-98733192D01*
X117762636Y-98733192D02*
X117907779Y-98733192D01*
X117907779Y-98733192D02*
X117980351Y-98769478D01*
X118198065Y-98733192D02*
X118488351Y-98733192D01*
X118306922Y-98479192D02*
X118306922Y-99132335D01*
X118306922Y-99132335D02*
X118343208Y-99204907D01*
X118343208Y-99204907D02*
X118415779Y-99241192D01*
X118415779Y-99241192D02*
X118488351Y-99241192D01*
X118742351Y-99241192D02*
X118742351Y-98733192D01*
X118742351Y-98878335D02*
X118778637Y-98805764D01*
X118778637Y-98805764D02*
X118814923Y-98769478D01*
X118814923Y-98769478D02*
X118887494Y-98733192D01*
X118887494Y-98733192D02*
X118960065Y-98733192D01*
X119322922Y-99241192D02*
X119250351Y-99204907D01*
X119250351Y-99204907D02*
X119214065Y-99168621D01*
X119214065Y-99168621D02*
X119177779Y-99096049D01*
X119177779Y-99096049D02*
X119177779Y-98878335D01*
X119177779Y-98878335D02*
X119214065Y-98805764D01*
X119214065Y-98805764D02*
X119250351Y-98769478D01*
X119250351Y-98769478D02*
X119322922Y-98733192D01*
X119322922Y-98733192D02*
X119431779Y-98733192D01*
X119431779Y-98733192D02*
X119504351Y-98769478D01*
X119504351Y-98769478D02*
X119540637Y-98805764D01*
X119540637Y-98805764D02*
X119576922Y-98878335D01*
X119576922Y-98878335D02*
X119576922Y-99096049D01*
X119576922Y-99096049D02*
X119540637Y-99168621D01*
X119540637Y-99168621D02*
X119504351Y-99204907D01*
X119504351Y-99204907D02*
X119431779Y-99241192D01*
X119431779Y-99241192D02*
X119322922Y-99241192D01*
X119903494Y-98733192D02*
X119903494Y-99241192D01*
X119903494Y-98805764D02*
X119939780Y-98769478D01*
X119939780Y-98769478D02*
X120012351Y-98733192D01*
X120012351Y-98733192D02*
X120121208Y-98733192D01*
X120121208Y-98733192D02*
X120193780Y-98769478D01*
X120193780Y-98769478D02*
X120230066Y-98842049D01*
X120230066Y-98842049D02*
X120230066Y-99241192D01*
X120592923Y-99241192D02*
X120592923Y-98733192D01*
X120592923Y-98479192D02*
X120556637Y-98515478D01*
X120556637Y-98515478D02*
X120592923Y-98551764D01*
X120592923Y-98551764D02*
X120629209Y-98515478D01*
X120629209Y-98515478D02*
X120592923Y-98479192D01*
X120592923Y-98479192D02*
X120592923Y-98551764D01*
X121282352Y-99204907D02*
X121209780Y-99241192D01*
X121209780Y-99241192D02*
X121064637Y-99241192D01*
X121064637Y-99241192D02*
X120992066Y-99204907D01*
X120992066Y-99204907D02*
X120955780Y-99168621D01*
X120955780Y-99168621D02*
X120919494Y-99096049D01*
X120919494Y-99096049D02*
X120919494Y-98878335D01*
X120919494Y-98878335D02*
X120955780Y-98805764D01*
X120955780Y-98805764D02*
X120992066Y-98769478D01*
X120992066Y-98769478D02*
X121064637Y-98733192D01*
X121064637Y-98733192D02*
X121209780Y-98733192D01*
X121209780Y-98733192D02*
X121282352Y-98769478D01*
X121572637Y-99204907D02*
X121645209Y-99241192D01*
X121645209Y-99241192D02*
X121790352Y-99241192D01*
X121790352Y-99241192D02*
X121862923Y-99204907D01*
X121862923Y-99204907D02*
X121899209Y-99132335D01*
X121899209Y-99132335D02*
X121899209Y-99096049D01*
X121899209Y-99096049D02*
X121862923Y-99023478D01*
X121862923Y-99023478D02*
X121790352Y-98987192D01*
X121790352Y-98987192D02*
X121681495Y-98987192D01*
X121681495Y-98987192D02*
X121608923Y-98950907D01*
X121608923Y-98950907D02*
X121572637Y-98878335D01*
X121572637Y-98878335D02*
X121572637Y-98842049D01*
X121572637Y-98842049D02*
X121608923Y-98769478D01*
X121608923Y-98769478D02*
X121681495Y-98733192D01*
X121681495Y-98733192D02*
X121790352Y-98733192D01*
X121790352Y-98733192D02*
X121862923Y-98769478D01*
X113724035Y-97513992D02*
X113288606Y-97513992D01*
X113506321Y-97513992D02*
X113506321Y-96751992D01*
X113506321Y-96751992D02*
X113433749Y-96860849D01*
X113433749Y-96860849D02*
X113361178Y-96933421D01*
X113361178Y-96933421D02*
X113288606Y-96969707D01*
X114014320Y-96824564D02*
X114050606Y-96788278D01*
X114050606Y-96788278D02*
X114123178Y-96751992D01*
X114123178Y-96751992D02*
X114304606Y-96751992D01*
X114304606Y-96751992D02*
X114377178Y-96788278D01*
X114377178Y-96788278D02*
X114413463Y-96824564D01*
X114413463Y-96824564D02*
X114449749Y-96897135D01*
X114449749Y-96897135D02*
X114449749Y-96969707D01*
X114449749Y-96969707D02*
X114413463Y-97078564D01*
X114413463Y-97078564D02*
X113978035Y-97513992D01*
X113978035Y-97513992D02*
X114449749Y-97513992D01*
X114667463Y-96751992D02*
X114921463Y-97513992D01*
X114921463Y-97513992D02*
X115175463Y-96751992D01*
X115901177Y-96751992D02*
X116336606Y-96751992D01*
X116118891Y-97513992D02*
X116118891Y-96751992D01*
X116735748Y-96751992D02*
X116880891Y-96751992D01*
X116880891Y-96751992D02*
X116953462Y-96788278D01*
X116953462Y-96788278D02*
X117026034Y-96860849D01*
X117026034Y-96860849D02*
X117062319Y-97005992D01*
X117062319Y-97005992D02*
X117062319Y-97259992D01*
X117062319Y-97259992D02*
X117026034Y-97405135D01*
X117026034Y-97405135D02*
X116953462Y-97477707D01*
X116953462Y-97477707D02*
X116880891Y-97513992D01*
X116880891Y-97513992D02*
X116735748Y-97513992D01*
X116735748Y-97513992D02*
X116663177Y-97477707D01*
X116663177Y-97477707D02*
X116590605Y-97405135D01*
X116590605Y-97405135D02*
X116554319Y-97259992D01*
X116554319Y-97259992D02*
X116554319Y-97005992D01*
X116554319Y-97005992D02*
X116590605Y-96860849D01*
X116590605Y-96860849D02*
X116663177Y-96788278D01*
X116663177Y-96788278D02*
X116735748Y-96751992D01*
X118332319Y-96751992D02*
X117969462Y-96751992D01*
X117969462Y-96751992D02*
X117933176Y-97114849D01*
X117933176Y-97114849D02*
X117969462Y-97078564D01*
X117969462Y-97078564D02*
X118042034Y-97042278D01*
X118042034Y-97042278D02*
X118223462Y-97042278D01*
X118223462Y-97042278D02*
X118296034Y-97078564D01*
X118296034Y-97078564D02*
X118332319Y-97114849D01*
X118332319Y-97114849D02*
X118368605Y-97187421D01*
X118368605Y-97187421D02*
X118368605Y-97368849D01*
X118368605Y-97368849D02*
X118332319Y-97441421D01*
X118332319Y-97441421D02*
X118296034Y-97477707D01*
X118296034Y-97477707D02*
X118223462Y-97513992D01*
X118223462Y-97513992D02*
X118042034Y-97513992D01*
X118042034Y-97513992D02*
X117969462Y-97477707D01*
X117969462Y-97477707D02*
X117933176Y-97441421D01*
X118586319Y-96751992D02*
X118840319Y-97513992D01*
X118840319Y-97513992D02*
X119094319Y-96751992D01*
X119820033Y-96751992D02*
X120074033Y-97513992D01*
X120074033Y-97513992D02*
X120328033Y-96751992D01*
X120981176Y-96788278D02*
X120908605Y-96751992D01*
X120908605Y-96751992D02*
X120799747Y-96751992D01*
X120799747Y-96751992D02*
X120690890Y-96788278D01*
X120690890Y-96788278D02*
X120618319Y-96860849D01*
X120618319Y-96860849D02*
X120582033Y-96933421D01*
X120582033Y-96933421D02*
X120545747Y-97078564D01*
X120545747Y-97078564D02*
X120545747Y-97187421D01*
X120545747Y-97187421D02*
X120582033Y-97332564D01*
X120582033Y-97332564D02*
X120618319Y-97405135D01*
X120618319Y-97405135D02*
X120690890Y-97477707D01*
X120690890Y-97477707D02*
X120799747Y-97513992D01*
X120799747Y-97513992D02*
X120872319Y-97513992D01*
X120872319Y-97513992D02*
X120981176Y-97477707D01*
X120981176Y-97477707D02*
X121017462Y-97441421D01*
X121017462Y-97441421D02*
X121017462Y-97187421D01*
X121017462Y-97187421D02*
X120872319Y-97187421D01*
X122360033Y-97513992D02*
X122106033Y-97151135D01*
X121924604Y-97513992D02*
X121924604Y-96751992D01*
X121924604Y-96751992D02*
X122214890Y-96751992D01*
X122214890Y-96751992D02*
X122287461Y-96788278D01*
X122287461Y-96788278D02*
X122323747Y-96824564D01*
X122323747Y-96824564D02*
X122360033Y-96897135D01*
X122360033Y-96897135D02*
X122360033Y-97005992D01*
X122360033Y-97005992D02*
X122323747Y-97078564D01*
X122323747Y-97078564D02*
X122287461Y-97114849D01*
X122287461Y-97114849D02*
X122214890Y-97151135D01*
X122214890Y-97151135D02*
X121924604Y-97151135D01*
X122686604Y-97114849D02*
X122940604Y-97114849D01*
X123049461Y-97513992D02*
X122686604Y-97513992D01*
X122686604Y-97513992D02*
X122686604Y-96751992D01*
X122686604Y-96751992D02*
X123049461Y-96751992D01*
X123775176Y-96788278D02*
X123702605Y-96751992D01*
X123702605Y-96751992D02*
X123593747Y-96751992D01*
X123593747Y-96751992D02*
X123484890Y-96788278D01*
X123484890Y-96788278D02*
X123412319Y-96860849D01*
X123412319Y-96860849D02*
X123376033Y-96933421D01*
X123376033Y-96933421D02*
X123339747Y-97078564D01*
X123339747Y-97078564D02*
X123339747Y-97187421D01*
X123339747Y-97187421D02*
X123376033Y-97332564D01*
X123376033Y-97332564D02*
X123412319Y-97405135D01*
X123412319Y-97405135D02*
X123484890Y-97477707D01*
X123484890Y-97477707D02*
X123593747Y-97513992D01*
X123593747Y-97513992D02*
X123666319Y-97513992D01*
X123666319Y-97513992D02*
X123775176Y-97477707D01*
X123775176Y-97477707D02*
X123811462Y-97441421D01*
X123811462Y-97441421D02*
X123811462Y-97187421D01*
X123811462Y-97187421D02*
X123666319Y-97187421D01*
X124138033Y-96751992D02*
X124138033Y-97368849D01*
X124138033Y-97368849D02*
X124174319Y-97441421D01*
X124174319Y-97441421D02*
X124210605Y-97477707D01*
X124210605Y-97477707D02*
X124283176Y-97513992D01*
X124283176Y-97513992D02*
X124428319Y-97513992D01*
X124428319Y-97513992D02*
X124500890Y-97477707D01*
X124500890Y-97477707D02*
X124537176Y-97441421D01*
X124537176Y-97441421D02*
X124573462Y-97368849D01*
X124573462Y-97368849D02*
X124573462Y-96751992D01*
X125299176Y-97513992D02*
X124936319Y-97513992D01*
X124936319Y-97513992D02*
X124936319Y-96751992D01*
X125516890Y-97296278D02*
X125879748Y-97296278D01*
X125444319Y-97513992D02*
X125698319Y-96751992D01*
X125698319Y-96751992D02*
X125952319Y-97513992D01*
X126097462Y-96751992D02*
X126532891Y-96751992D01*
X126315176Y-97513992D02*
X126315176Y-96751992D01*
X126932033Y-96751992D02*
X127077176Y-96751992D01*
X127077176Y-96751992D02*
X127149747Y-96788278D01*
X127149747Y-96788278D02*
X127222319Y-96860849D01*
X127222319Y-96860849D02*
X127258604Y-97005992D01*
X127258604Y-97005992D02*
X127258604Y-97259992D01*
X127258604Y-97259992D02*
X127222319Y-97405135D01*
X127222319Y-97405135D02*
X127149747Y-97477707D01*
X127149747Y-97477707D02*
X127077176Y-97513992D01*
X127077176Y-97513992D02*
X126932033Y-97513992D01*
X126932033Y-97513992D02*
X126859462Y-97477707D01*
X126859462Y-97477707D02*
X126786890Y-97405135D01*
X126786890Y-97405135D02*
X126750604Y-97259992D01*
X126750604Y-97259992D02*
X126750604Y-97005992D01*
X126750604Y-97005992D02*
X126786890Y-96860849D01*
X126786890Y-96860849D02*
X126859462Y-96788278D01*
X126859462Y-96788278D02*
X126932033Y-96751992D01*
X128020605Y-97513992D02*
X127766605Y-97151135D01*
X127585176Y-97513992D02*
X127585176Y-96751992D01*
X127585176Y-96751992D02*
X127875462Y-96751992D01*
X127875462Y-96751992D02*
X127948033Y-96788278D01*
X127948033Y-96788278D02*
X127984319Y-96824564D01*
X127984319Y-96824564D02*
X128020605Y-96897135D01*
X128020605Y-96897135D02*
X128020605Y-97005992D01*
X128020605Y-97005992D02*
X127984319Y-97078564D01*
X127984319Y-97078564D02*
X127948033Y-97114849D01*
X127948033Y-97114849D02*
X127875462Y-97151135D01*
X127875462Y-97151135D02*
X127585176Y-97151135D01*
D11*
X142113000Y-81628063D02*
X141859000Y-81265206D01*
X141677571Y-81628063D02*
X141677571Y-80866063D01*
X141677571Y-80866063D02*
X141967857Y-80866063D01*
X141967857Y-80866063D02*
X142040428Y-80902349D01*
X142040428Y-80902349D02*
X142076714Y-80938635D01*
X142076714Y-80938635D02*
X142113000Y-81011206D01*
X142113000Y-81011206D02*
X142113000Y-81120063D01*
X142113000Y-81120063D02*
X142076714Y-81192635D01*
X142076714Y-81192635D02*
X142040428Y-81228920D01*
X142040428Y-81228920D02*
X141967857Y-81265206D01*
X141967857Y-81265206D02*
X141677571Y-81265206D01*
X142838714Y-81628063D02*
X142403285Y-81628063D01*
X142621000Y-81628063D02*
X142621000Y-80866063D01*
X142621000Y-80866063D02*
X142548428Y-80974920D01*
X142548428Y-80974920D02*
X142475857Y-81047492D01*
X142475857Y-81047492D02*
X142403285Y-81083778D01*
X116586000Y-81374063D02*
X116586000Y-81918349D01*
X116586000Y-81918349D02*
X116549715Y-82027206D01*
X116549715Y-82027206D02*
X116477143Y-82099778D01*
X116477143Y-82099778D02*
X116368286Y-82136063D01*
X116368286Y-82136063D02*
X116295715Y-82136063D01*
X117348000Y-82136063D02*
X116912571Y-82136063D01*
X117130286Y-82136063D02*
X117130286Y-81374063D01*
X117130286Y-81374063D02*
X117057714Y-81482920D01*
X117057714Y-81482920D02*
X116985143Y-81555492D01*
X116985143Y-81555492D02*
X116912571Y-81591778D01*
X150114000Y-85184063D02*
X150114000Y-85728349D01*
X150114000Y-85728349D02*
X150077715Y-85837206D01*
X150077715Y-85837206D02*
X150005143Y-85909778D01*
X150005143Y-85909778D02*
X149896286Y-85946063D01*
X149896286Y-85946063D02*
X149823715Y-85946063D01*
X150440571Y-85256635D02*
X150476857Y-85220349D01*
X150476857Y-85220349D02*
X150549429Y-85184063D01*
X150549429Y-85184063D02*
X150730857Y-85184063D01*
X150730857Y-85184063D02*
X150803429Y-85220349D01*
X150803429Y-85220349D02*
X150839714Y-85256635D01*
X150839714Y-85256635D02*
X150876000Y-85329206D01*
X150876000Y-85329206D02*
X150876000Y-85401778D01*
X150876000Y-85401778D02*
X150839714Y-85510635D01*
X150839714Y-85510635D02*
X150404286Y-85946063D01*
X150404286Y-85946063D02*
X150876000Y-85946063D01*
X125526800Y-88159492D02*
X125490514Y-88195778D01*
X125490514Y-88195778D02*
X125381657Y-88232063D01*
X125381657Y-88232063D02*
X125309085Y-88232063D01*
X125309085Y-88232063D02*
X125200228Y-88195778D01*
X125200228Y-88195778D02*
X125127657Y-88123206D01*
X125127657Y-88123206D02*
X125091371Y-88050635D01*
X125091371Y-88050635D02*
X125055085Y-87905492D01*
X125055085Y-87905492D02*
X125055085Y-87796635D01*
X125055085Y-87796635D02*
X125091371Y-87651492D01*
X125091371Y-87651492D02*
X125127657Y-87578920D01*
X125127657Y-87578920D02*
X125200228Y-87506349D01*
X125200228Y-87506349D02*
X125309085Y-87470063D01*
X125309085Y-87470063D02*
X125381657Y-87470063D01*
X125381657Y-87470063D02*
X125490514Y-87506349D01*
X125490514Y-87506349D02*
X125526800Y-87542635D01*
X126252514Y-88232063D02*
X125817085Y-88232063D01*
X126034800Y-88232063D02*
X126034800Y-87470063D01*
X126034800Y-87470063D02*
X125962228Y-87578920D01*
X125962228Y-87578920D02*
X125889657Y-87651492D01*
X125889657Y-87651492D02*
X125817085Y-87687778D01*
X128959428Y-80358063D02*
X128959428Y-80974920D01*
X128959428Y-80974920D02*
X128995714Y-81047492D01*
X128995714Y-81047492D02*
X129032000Y-81083778D01*
X129032000Y-81083778D02*
X129104571Y-81120063D01*
X129104571Y-81120063D02*
X129249714Y-81120063D01*
X129249714Y-81120063D02*
X129322285Y-81083778D01*
X129322285Y-81083778D02*
X129358571Y-81047492D01*
X129358571Y-81047492D02*
X129394857Y-80974920D01*
X129394857Y-80974920D02*
X129394857Y-80358063D01*
X130156857Y-81120063D02*
X129721428Y-81120063D01*
X129939143Y-81120063D02*
X129939143Y-80358063D01*
X129939143Y-80358063D02*
X129866571Y-80466920D01*
X129866571Y-80466920D02*
X129794000Y-80539492D01*
X129794000Y-80539492D02*
X129721428Y-80575778D01*
X132207000Y-88337292D02*
X132170714Y-88373578D01*
X132170714Y-88373578D02*
X132061857Y-88409863D01*
X132061857Y-88409863D02*
X131989285Y-88409863D01*
X131989285Y-88409863D02*
X131880428Y-88373578D01*
X131880428Y-88373578D02*
X131807857Y-88301006D01*
X131807857Y-88301006D02*
X131771571Y-88228435D01*
X131771571Y-88228435D02*
X131735285Y-88083292D01*
X131735285Y-88083292D02*
X131735285Y-87974435D01*
X131735285Y-87974435D02*
X131771571Y-87829292D01*
X131771571Y-87829292D02*
X131807857Y-87756720D01*
X131807857Y-87756720D02*
X131880428Y-87684149D01*
X131880428Y-87684149D02*
X131989285Y-87647863D01*
X131989285Y-87647863D02*
X132061857Y-87647863D01*
X132061857Y-87647863D02*
X132170714Y-87684149D01*
X132170714Y-87684149D02*
X132207000Y-87720435D01*
X132497285Y-87720435D02*
X132533571Y-87684149D01*
X132533571Y-87684149D02*
X132606143Y-87647863D01*
X132606143Y-87647863D02*
X132787571Y-87647863D01*
X132787571Y-87647863D02*
X132860143Y-87684149D01*
X132860143Y-87684149D02*
X132896428Y-87720435D01*
X132896428Y-87720435D02*
X132932714Y-87793006D01*
X132932714Y-87793006D02*
X132932714Y-87865578D01*
X132932714Y-87865578D02*
X132896428Y-87974435D01*
X132896428Y-87974435D02*
X132461000Y-88409863D01*
X132461000Y-88409863D02*
X132932714Y-88409863D01*
X142588063Y-90478428D02*
X141826063Y-90478428D01*
X141826063Y-90478428D02*
X141826063Y-90296999D01*
X141826063Y-90296999D02*
X141862349Y-90188142D01*
X141862349Y-90188142D02*
X141934920Y-90115571D01*
X141934920Y-90115571D02*
X142007492Y-90079285D01*
X142007492Y-90079285D02*
X142152635Y-90042999D01*
X142152635Y-90042999D02*
X142261492Y-90042999D01*
X142261492Y-90042999D02*
X142406635Y-90079285D01*
X142406635Y-90079285D02*
X142479206Y-90115571D01*
X142479206Y-90115571D02*
X142551778Y-90188142D01*
X142551778Y-90188142D02*
X142588063Y-90296999D01*
X142588063Y-90296999D02*
X142588063Y-90478428D01*
X142588063Y-89317285D02*
X142588063Y-89752714D01*
X142588063Y-89534999D02*
X141826063Y-89534999D01*
X141826063Y-89534999D02*
X141934920Y-89607571D01*
X141934920Y-89607571D02*
X142007492Y-89680142D01*
X142007492Y-89680142D02*
X142043778Y-89752714D01*
%TO.C,R1*%
D12*
X138200000Y-83820000D02*
X138970000Y-83820000D01*
X146280000Y-83820000D02*
X145510000Y-83820000D01*
X138970000Y-82450000D02*
X145510000Y-82450000D01*
X145510000Y-85190000D01*
X138970000Y-85190000D01*
X138970000Y-82450000D01*
%TO.C,J1*%
X107770000Y-83030000D02*
X122470000Y-83030000D01*
X107770000Y-92230000D02*
X107770000Y-83030000D01*
X116570000Y-92230000D02*
X107770000Y-92230000D01*
X121620000Y-82830000D02*
X122670000Y-82830000D01*
X122470000Y-83030000D02*
X122470000Y-85630000D01*
X122470000Y-89530000D02*
X122470000Y-92230000D01*
X122470000Y-92230000D02*
X120570000Y-92230000D01*
X122670000Y-83880000D02*
X122670000Y-82830000D01*
%TO.C,J2*%
X146758000Y-93568000D02*
X146758000Y-94818000D01*
X146758000Y-94818000D02*
X148008000Y-94818000D01*
X147058000Y-86798000D02*
X147058000Y-89058000D01*
X147058000Y-89058000D02*
X148058000Y-89058000D01*
X147058000Y-92258000D02*
X147058000Y-94518000D01*
X147058000Y-94518000D02*
X153678000Y-94518000D01*
X147458000Y-90258000D02*
X147458000Y-91058000D01*
X147458000Y-91058000D02*
X148058000Y-91058000D01*
X148058000Y-89058000D02*
X148058000Y-90258000D01*
X148058000Y-90258000D02*
X147458000Y-90258000D01*
X148058000Y-91058000D02*
X148058000Y-92258000D01*
X148058000Y-92258000D02*
X147058000Y-92258000D01*
X148668000Y-87808000D02*
X148668000Y-93508000D01*
X148668000Y-93508000D02*
X152968000Y-93508000D01*
X150368000Y-86798000D02*
X150368000Y-87808000D01*
X150368000Y-94518000D02*
X150368000Y-93508000D01*
X152968000Y-87808000D02*
X148668000Y-87808000D01*
X152968000Y-93508000D02*
X152968000Y-87808000D01*
X153678000Y-86798000D02*
X147058000Y-86798000D01*
X153678000Y-94518000D02*
X153678000Y-86798000D01*
%TO.C,C1=100uf/25V1*%
X131540000Y-91420000D02*
G75*
G02*
X125000000Y-91420000I-3270000J0D01*
G01*
X125000000Y-91420000D02*
G75*
G02*
X131540000Y-91420000I3270000J0D01*
G01*
%TO.C,U1*%
X124430000Y-81830000D02*
X134650000Y-81830000D01*
X124430000Y-83210000D02*
X134650000Y-83210000D01*
X124430000Y-86450000D02*
X124430000Y-81830000D01*
X127690000Y-81830000D02*
X127690000Y-83210000D01*
X131390000Y-81830000D02*
X131390000Y-83210000D01*
X134650000Y-81830000D02*
X134650000Y-86450000D01*
X134650000Y-86450000D02*
X124430000Y-86450000D01*
%TO.C,C2=10uf/16V1*%
X138240000Y-90195400D02*
G75*
G02*
X133000000Y-90195400I-2620000J0D01*
G01*
X133000000Y-90195400D02*
G75*
G02*
X138240000Y-90195400I2620000J0D01*
G01*
%TO.C,D1*%
X140695000Y-92476000D02*
X143785000Y-92476000D01*
X140695170Y-92476000D02*
G75*
G02*
X142240000Y-86926000I1544830J2560000D01*
G01*
X142240000Y-86926000D02*
G75*
G02*
X143784830Y-92476000I0J-2990000D01*
G01*
X144740000Y-89916000D02*
G75*
G02*
X139740000Y-89916000I-2500000J0D01*
G01*
X139740000Y-89916000D02*
G75*
G02*
X144740000Y-89916000I2500000J0D01*
G01*
%TD*%
M02*
